PathFileType	4	(X/Y/Z)	/Users/itak/Documents/Research/Walk-IL/dataset/trc/00410_00012.trc
DataRate	CameraRate	NumFrames	NumMarkers	Units	OrigDataRate	OrigDataStartFrame	OrigNumFrames
100.000000	100.000000	4	56	mm	100.000000	131	527
Frame#	Time	RPSI			LPSI			L3			STRN			T10			C7			CLAV			RBAK			LBAK			LSHO			LUPA			LAEL			LAOL			LWTS			LWPS			LFRA			LIFD			LHPS			LHTS			RSHO			RUPA			RAEL			RAOL			RWTS			RWPS			RFRA			RIFD			RHTS			RHPS			RBHD			LFHD			RFHD			LBHD			LHIP			RHIP			RASI			LASI			LKNE			LTHI			LANK			LTIP			LTOE			LMT1			LMT5			LHEE			RKNE			RTHI			RANK			RTIP			RTOE			RMT1			RMT5			RHEE			*53			*54			*55			
		X1	Y1	Z1	X2	Y2	Z2	X3	Y3	Z3	X4	Y4	Z4	X5	Y5	Z5	X6	Y6	Z6	X7	Y7	Z7	X8	Y8	Z8	X9	Y9	Z9	X10	Y10	Z10	X11	Y11	Z11	X12	Y12	Z12	X13	Y13	Z13	X14	Y14	Z14	X15	Y15	Z15	X16	Y16	Z16	X17	Y17	Z17	X18	Y18	Z18	X19	Y19	Z19	X20	Y20	Z20	X21	Y21	Z21	X22	Y22	Z22	X23	Y23	Z23	X24	Y24	Z24	X25	Y25	Z25	X26	Y26	Z26	X27	Y27	Z27	X28	Y28	Z28	X29	Y29	Z29	X30	Y30	Z30	X31	Y31	Z31	X32	Y32	Z32	X33	Y33	Z33	X34	Y34	Z34	X35	Y35	Z35	X36	Y36	Z36	X37	Y37	Z37	X38	Y38	Z38	X39	Y39	Z39	X40	Y40	Z40	X41	Y41	Z41	X42	Y42	Z42	X43	Y43	Z43	X44	Y44	Z44	X45	Y45	Z45	X46	Y46	Z46	X47	Y47	Z47	X48	Y48	Z48	X49	Y49	Z49	X50	Y50	Z50	X51	Y51	Z51	X52	Y52	Z52	X53	Y53	Z53	X54	Y54	Z54	X55	Y55	Z55	X56	Y56	Z56	

132	1.31	-833.0366821289062	990.6451416015625	778.5325317382812	-828.1639404296875	985.7350463867188	647.1419677734375	-830.8585815429688	1061.801391601562	714.6394653320312	-590.2791748046875	1213.933227539062	741.0895385742188	-835.53662109375	1165.553833007812	712.3250122070312	-797.2026977539062	1414.418823242188	707.33056640625	-642.5790405273438	1333.228637695312	734.5194702148438	-847.7120971679688	1267.62451171875	768.60498046875	-795.7042236328125	1378.180786132812	601.7655639648438	-701.1731567382812	1391.49169921875	565.8209228515625	-710.616943359375	1276.336547851562	490.0102844238281	-679.474365234375	1079.1708984375	471.1207275390625	-752.914794921875	1058.415893554688	510.5325317382812	-601.5716552734375	868.2882080078125	550.8904418945312	-620.2484130859375	853.3727416992188	472.3731689453125	-655.24853515625	975.0857543945312	469.0122680664062	-591.4898071289062	688.2254028320312	548.5897827148438	-606.6243286132812	768.126220703125	487.6983642578125	-573.4439086914062	772.9830322265625	541.1878662109375	-759.6532592773438	1390.638427734375	872.3099365234375	-781.801513671875	1326.1904296875	928.3903198242188	-789.7802124023438	1065.136840820312	970.6754150390625	-800.6176147460938	1055.666381835938	876.23193359375	-662.4278564453125	848.7385864257812	953.8861083984375	-707.054443359375	837.979248046875	1010.516479492188	-765.9393920898438	999.200439453125	988.9077758789062	-663.4813232421875	676.3593139648438	956.6515502929688	-644.2901611328125	743.6917114257812	976.2900390625	-701.7555541992188	748.66943359375	1011.630432128906	-749.7281494140625	1607.023315429688	803.5540771484375	-594.6129150390625	1591.979248046875	680.4929809570312	-615.8353271484375	1598.30712890625	801.1005249023438	-738.555908203125	1599.276123046875	641.2542724609375	-720.2010498046875	963.0343627929688	552.5614013671875	-756.5145263671875	960.9391479492188	896.3557739257812	-622.2744750976562	969.1809692382812	850.4236450195312	-622.4671020507812	968.2451782226562	586.9505615234375	-706.0982055664062	478.6183776855469	552.1376342773438	-708.385986328125	621.1326293945312	543.2670288085938	-800.7879028320312	41.4932975769043	582.7421264648438	-757.9983520507812	247.7952880859375	555.7854614257812	-595.9198608398438	43.51088714599609	670.5888671875	-679.4552001953125	43.87369155883789	690.017822265625	-673.588134765625	41.77009582519531	584.913330078125	-844.9510498046875	39.67239379882812	636.7991943359375	-720.1305541992188	471.8736572265625	862.2457275390625	-679.9703979492188	732.746337890625	895.09912109375	-792.8212280273438	55.72169494628906	814.6590576171875	-715.355712890625	344.6161193847656	843.81494140625	-607.9028930664062	41.23642730712891	769.5753784179688	-680.4248657226562	44.48143005371094	731.996337890625	-710.3967895507812	45.6614990234375	828.8311157226562	-860.794189453125	45.30197525024414	755.1851196289062	nan	nan	nan	nan	nan	nan	nan	nan	nan	
133	1.32	-833.06591796875	990.6232299804688	778.4454956054688	-828.1731567382812	985.7421875	647.107421875	-830.9669189453125	1061.755126953125	714.4553833007812	-590.3967895507812	1213.998657226562	740.9884033203125	-835.6096801757812	1165.482666015625	712.2158203125	-797.370361328125	1414.298583984375	707.2978515625	-642.735107421875	1333.234741210938	734.4404296875	-847.858154296875	1267.586059570312	768.541259765625	-795.8318481445312	1378.124755859375	601.7028198242188	-701.3482055664062	1391.506103515625	565.763916015625	-710.7874755859375	1276.359741210938	489.8955078125	-679.5858764648438	1079.191772460938	470.9916076660156	-752.99169921875	1058.43359375	510.4420166015625	-601.5036010742188	868.3655395507812	550.7899169921875	-620.2094116210938	853.43896484375	472.2685852050781	-655.2409057617188	975.1091918945312	468.9180297851562	-591.4241943359375	688.3079833984375	548.53515625	-606.6182861328125	768.2205200195312	487.6117553710938	-573.373291015625	773.0769653320312	541.1243286132812	-759.8224487304688	1390.597412109375	872.1871337890625	-781.9609985351562	1326.152221679688	928.28662109375	-789.8599853515625	1065.13134765625	970.5957641601562	-800.7190551757812	1055.661865234375	876.1463623046875	-662.3341064453125	848.8530883789062	953.77001953125	-706.87841796875	838.0044555664062	1010.408142089844	-765.8908081054688	999.1921997070312	988.8234252929688	-663.204345703125	676.4187622070312	956.516845703125	-643.986328125	743.8281860351562	976.1406860351562	-701.5018920898438	748.8394775390625	1011.438415527344	-749.9035034179688	1606.97509765625	803.4764404296875	-594.8446655273438	1591.967529296875	680.4309692382812	-616.0914306640625	1598.297973632812	801.0435791015625	-738.6934814453125	1599.256591796875	641.22900390625	-720.2620849609375	963.0284423828125	552.4304809570312	-756.6031494140625	960.9427490234375	896.1967163085938	-622.3637084960938	969.2166137695312	850.3623657226562	-622.5021362304688	968.2727661132812	586.8631591796875	-706.1178588867188	478.6383972167969	552.051513671875	-708.4183349609375	621.137451171875	543.2078247070312	-800.7767944335938	41.46979904174805	582.7218017578125	-757.983154296875	247.7869110107422	555.7305908203125	-595.9419555664062	43.50732803344727	670.5842895507812	-679.4597778320312	43.89293670654297	690.009521484375	-673.5955810546875	41.76091003417969	584.8983764648438	-844.9447021484375	39.67098999023438	636.792724609375	-720.1488647460938	471.8814697265625	862.1928100585938	-680.08984375	732.7230834960938	895.0269775390625	-792.8305053710938	55.7237434387207	814.647705078125	-715.3768310546875	344.6401672363281	843.7677612304688	-607.8982543945312	41.23991775512695	769.5728149414062	-680.4254760742188	44.46979904174805	731.99609375	-710.3955078125	45.66266250610352	828.8298950195312	-860.7970581054688	45.30205154418945	755.17578125	nan	nan	nan	nan	nan	nan	nan	nan	nan	
134	1.33	-833.0938110351562	990.6024169921875	778.3474731445312	-828.197265625	985.7604370117188	647.0687866210938	-831.066162109375	1061.680419921875	714.2347412109375	-590.5164184570312	1214.067260742188	740.8916015625	-835.7053833007812	1165.415283203125	712.0914916992188	-797.5396728515625	1414.16650390625	707.2681274414062	-642.896728515625	1333.235107421875	734.3662109375	-848.0094604492188	1267.54541015625	768.4760131835938	-795.9619140625	1378.069213867188	601.6372680664062	-701.5463256835938	1391.518798828125	565.69970703125	-710.9524536132812	1276.382446289062	489.7850646972656	-679.694580078125	1079.2138671875	470.8611145019531	-753.078125	1058.457397460938	510.3510131835938	-601.4456787109375	868.44677734375	550.6842651367188	-620.1886596679688	853.4974365234375	472.1603088378906	-655.25	975.1326293945312	468.8162231445312	-591.3792724609375	688.3895874023438	548.4708251953125	-606.63232421875	768.3043212890625	487.5180358886719	-573.3237915039062	773.142822265625	541.0759887695312	-759.9779663085938	1390.552612304688	872.072265625	-782.0924072265625	1326.113403320312	928.1922607421875	-789.9251708984375	1065.120849609375	970.5089721679688	-800.82470703125	1055.657592773438	876.0572509765625	-662.2332153320312	848.9514770507812	953.6414184570312	-706.7138671875	838.0237426757812	1010.296875	-765.8419799804688	999.181884765625	988.7340087890625	-662.854736328125	676.4844360351562	956.3914794921875	-643.6834106445312	743.9494018554688	975.9874267578125	-701.2891845703125	748.9717407226562	1011.250549316406	-750.07568359375	1606.93359375	803.4092407226562	-595.0870971679688	1591.967529296875	680.3690795898438	-616.3644409179688	1598.288940429688	800.9844970703125	-738.8402709960938	1599.25390625	641.1904296875	-720.3449096679688	963.029541015625	552.2841186523438	-756.7077026367188	960.9533081054688	896.0405883789062	-622.4588623046875	969.2552490234375	850.2985229492188	-622.5391235351562	968.3050537109375	586.7655029296875	-706.1503295898438	478.655517578125	551.9695434570312	-708.468994140625	621.1370239257812	543.1439819335938	-800.7675170898438	41.44734573364258	582.701416015625	-757.9795532226562	247.7754821777344	555.675537109375	-595.9661254882812	43.50346755981445	670.5810546875	-679.4679565429688	43.91048431396484	690.0021362304688	-673.599853515625	41.75284194946289	584.8865356445312	-844.9392700195312	39.66896438598633	636.7874755859375	-720.1779174804688	471.8848876953125	862.1389770507812	-680.1922607421875	732.697021484375	894.9627685546875	-792.8406982421875	55.72607421875	814.6353759765625	-715.3988037109375	344.6637878417969	843.7201538085938	-607.8941650390625	41.24313735961914	769.5684814453125	-680.42529296875	44.45727920532227	731.9956665039062	-710.3933715820312	45.66387176513672	828.8275146484375	-860.7999267578125	45.30324172973633	755.1663208007812	nan	nan	nan	nan	nan	nan	nan	nan	nan	
135	1.34	-833.1184692382812	990.5802001953125	778.2379760742188	-828.2399291992188	985.78955078125	647.0243530273438	-831.1624145507812	1061.58056640625	713.9820556640625	-590.6448364257812	1214.13720703125	740.798095703125	-835.8284301757812	1165.354614257812	711.9513549804688	-797.7142944335938	1414.033569335938	707.2368774414062	-643.0689086914062	1333.231689453125	734.2937622070312	-848.1695556640625	1267.503051757812	768.406982421875	-796.10009765625	1378.016967773438	601.5656127929688	-701.7717895507812	1391.529541015625	565.626708984375	-711.1127319335938	1276.403442382812	489.6803283691406	-679.8007202148438	1079.237426757812	470.7301025390625	-753.1763305664062	1058.486694335938	510.2580261230469	-601.40087890625	868.5288696289062	550.5740356445312	-620.1882934570312	853.5479736328125	472.0469970703125	-655.2802124023438	975.1580810546875	468.7059020996094	-591.3469848632812	688.467529296875	548.3890991210938	-606.6591796875	768.3753051757812	487.4168395996094	-573.2901611328125	773.1845092773438	541.03955078125	-760.1229248046875	1390.505981445312	871.9653930664062	-782.2041015625	1326.074829101562	928.1078491210938	-789.9780883789062	1065.10498046875	970.4119262695312	-800.9345703125	1055.654296875	875.9638061523438	-662.1246337890625	849.0347900390625	953.5048217773438	-706.5610961914062	838.0379638671875	1010.184448242188	-765.798095703125	999.1687622070312	988.639892578125	-662.4364013671875	676.5571899414062	956.281982421875	-643.3674926757812	744.0552368164062	975.8364868164062	-701.115234375	749.0628662109375	1011.079711914062	-750.2476196289062	1606.901611328125	803.352783203125	-595.3355712890625	1591.977294921875	680.307373046875	-616.6435546875	1598.280639648438	800.9229125976562	-738.9998168945312	1599.263793945312	641.1434326171875	-720.4537353515625	963.041259765625	552.1220703125	-756.8283081054688	960.9691772460938	895.89208984375	-622.559326171875	969.2955932617188	850.233154296875	-622.5810546875	968.3391723632812	586.6605224609375	-706.1939697265625	478.6687622070312	551.894287109375	-708.53662109375	621.131591796875	543.0748901367188	-800.7632446289062	41.42914581298828	582.6826171875	-757.98681640625	247.7613983154297	555.6192626953125	-595.987548828125	43.50089645385742	670.5775146484375	-679.4806518554688	43.92557525634766	689.9962158203125	-673.5999755859375	41.74534225463867	584.8783569335938	-844.9342651367188	39.66603088378906	636.7830200195312	-720.2177124023438	471.8843688964844	862.08349609375	-680.2724609375	732.6701049804688	894.9019775390625	-792.8515014648438	55.72980117797852	814.623291015625	-715.4232788085938	344.6866760253906	843.6708374023438	-607.8911743164062	41.24591445922852	769.562255859375	-680.4244384765625	44.44548797607422	731.9949951171875	-710.3908081054688	45.66521072387695	828.8235473632812	-860.8016357421875	45.30490875244141	755.1573486328125	nan	nan	nan	nan	nan	nan	nan	nan	nan	
